<?xml version="1.0" encoding="UTF-8" standalone="no"?>
<!DOCTYPE svg PUBLIC "-//W3C//DTD SVG 1.1//EN" "http://www.w3.org/Graphics/SVG/1.1/DTD/svg11.dtd">
<!-- Created with Vectornator (http://vectornator.io/) -->
<svg height="100%" stroke-miterlimit="10" style="fill-rule:nonzero;clip-rule:evenodd;stroke-linecap:round;stroke-linejoin:round;" version="1.1" viewBox="0 0 271.69 131.313" width="100%" xml:space="preserve" xmlns="http://www.w3.org/2000/svg" xmlns:vectornator="http://vectornator.io" xmlns:xlink="http://www.w3.org/1999/xlink">
<defs/>
<g id="Layer-1" vectornator:layerName="Layer 1">
<g opacity="1">
<g opacity="1">
<g fill="#ffffff" opacity="1" stroke="#4381d5" stroke-linecap="round" stroke-linejoin="round" stroke-opacity="0.0472388" stroke-width="1">
<path d="M104.209 54.3326L105.604 54.3326C106.658 54.3326 107.599 54.1672 108.425 53.8366C109.252 53.5059 109.949 53.0512 110.518 52.4726C111.086 51.8939 111.52 51.2067 111.82 50.4111C112.119 49.6154 112.269 48.7422 112.269 47.7916C112.269 46.8616 112.114 45.9936 111.804 45.1876C111.494 44.3816 111.055 43.6892 110.487 43.1106C109.918 42.5319 109.221 42.0772 108.394 41.7466C107.568 41.4159 106.638 41.2506 105.604 41.2506L104.209 41.2506L104.209 54.3326ZM98.1332 36.1046L107.123 36.1046C108.715 36.1046 110.208 36.4249 111.603 37.0656C112.998 37.7062 114.217 38.5587 115.261 39.6231C116.304 40.6874 117.126 41.9274 117.725 43.3431C118.325 44.7587 118.624 46.2416 118.624 47.7916C118.624 49.3209 118.33 50.7934 117.741 52.2091C117.152 53.6247 116.335 54.8699 115.292 55.9446C114.248 57.0192 113.029 57.8769 111.634 58.5176C110.239 59.1582 108.735 59.4786 107.123 59.4786L98.1332 59.4786L98.1332 36.1046Z"/>
<path d="M127.18 51.4806C127.18 51.9972 127.273 52.4777 127.459 52.9221C127.645 53.3664 127.898 53.7539 128.219 54.0846C128.539 54.4152 128.921 54.6736 129.366 54.8596C129.81 55.0456 130.291 55.1386 130.807 55.1386C131.303 55.1386 131.773 55.0456 132.218 54.8596C132.662 54.6736 133.044 54.4152 133.365 54.0846C133.685 53.7539 133.943 53.3716 134.14 52.9376C134.336 52.5036 134.434 52.0386 134.434 51.5426C134.434 51.0466 134.336 50.5764 134.14 50.1321C133.943 49.6877 133.685 49.3002 133.365 48.9696C133.044 48.6389 132.662 48.3806 132.218 48.1946C131.773 48.0086 131.303 47.9156 130.807 47.9156C130.291 47.9156 129.81 48.0086 129.366 48.1946C128.921 48.3806 128.539 48.6389 128.219 48.9696C127.898 49.3002 127.645 49.6774 127.459 50.1011C127.273 50.5247 127.18 50.9846 127.18 51.4806ZM134.248 43.5756L139.89 43.5756L139.89 59.4786L134.248 59.4786L134.248 57.7116C133.05 59.2202 131.427 59.9746 129.381 59.9746C128.224 59.9746 127.16 59.7627 126.188 59.3391C125.217 58.9154 124.37 58.3212 123.646 57.5566C122.923 56.7919 122.36 55.8929 121.957 54.8596C121.554 53.8262 121.352 52.6999 121.352 51.4806C121.352 50.3439 121.549 49.2641 121.941 48.2411C122.334 47.2181 122.882 46.3242 123.584 45.5596C124.287 44.7949 125.124 44.1904 126.095 43.7461C127.067 43.3017 128.141 43.0796 129.319 43.0796C131.303 43.0796 132.946 43.7719 134.248 45.1566L134.248 43.5756Z"/>
<path d="M149.965 48.2566L149.965 59.4786L144.354 59.4786L144.354 48.2566L142.494 48.2566L142.494 43.5756L144.354 43.5756L144.354 38.8016L149.965 38.8016L149.965 43.5756L153.158 43.5756L153.158 48.2566L149.965 48.2566Z"/>
<path d="M160.784 51.4806C160.784 51.9972 160.877 52.4777 161.063 52.9221C161.249 53.3664 161.502 53.7539 161.823 54.0846C162.143 54.4152 162.525 54.6736 162.97 54.8596C163.414 55.0456 163.895 55.1386 164.411 55.1386C164.907 55.1386 165.377 55.0456 165.822 54.8596C166.266 54.6736 166.648 54.4152 166.969 54.0846C167.289 53.7539 167.547 53.3716 167.744 52.9376C167.94 52.5036 168.038 52.0386 168.038 51.5426C168.038 51.0466 167.94 50.5764 167.744 50.1321C167.547 49.6877 167.289 49.3002 166.969 48.9696C166.648 48.6389 166.266 48.3806 165.822 48.1946C165.377 48.0086 164.907 47.9156 164.411 47.9156C163.895 47.9156 163.414 48.0086 162.97 48.1946C162.525 48.3806 162.143 48.6389 161.823 48.9696C161.502 49.3002 161.249 49.6774 161.063 50.1011C160.877 50.5247 160.784 50.9846 160.784 51.4806ZM167.852 43.5756L173.494 43.5756L173.494 59.4786L167.852 59.4786L167.852 57.7116C166.654 59.2202 165.031 59.9746 162.985 59.9746C161.828 59.9746 160.764 59.7627 159.792 59.3391C158.821 58.9154 157.974 58.3212 157.25 57.5566C156.527 56.7919 155.964 55.8929 155.561 54.8596C155.158 53.8262 154.956 52.6999 154.956 51.4806C154.956 50.3439 155.153 49.2641 155.545 48.2411C155.938 47.2181 156.486 46.3242 157.188 45.5596C157.891 44.7949 158.728 44.1904 159.699 43.7461C160.671 43.3017 161.745 43.0796 162.923 43.0796C164.907 43.0796 166.55 43.7719 167.852 45.1566L167.852 43.5756Z"/>
</g>
<g fill="#ffffff" opacity="1" stroke="#4381d5" stroke-linecap="round" stroke-linejoin="round" stroke-opacity="0.0472388" stroke-width="1">
<path d="M111.432 76.6763L104.209 76.6763L104.209 80.5823L111.029 80.5823L111.029 85.7283L104.209 85.7283L104.209 89.7583L111.432 89.7583L111.432 94.9043L98.1332 94.9043L98.1332 71.5303L111.432 71.5303L111.432 76.6763Z"/>
<path d="M120.887 69.1743L120.887 94.9043L115.276 94.9043L115.276 69.1743L120.887 69.1743Z"/>
<path d="M136.356 84.6433C136.17 83.858 135.788 83.2276 135.209 82.7523C134.631 82.277 133.928 82.0393 133.101 82.0393C132.233 82.0393 131.525 82.2666 130.978 82.7213C130.43 83.176 130.084 83.8166 129.939 84.6433L136.356 84.6433ZM129.784 87.8983C129.784 90.3163 130.921 91.5253 133.194 91.5253C134.414 91.5253 135.333 91.0293 135.953 90.0373L141.378 90.0373C140.283 93.6746 137.545 95.4933 133.163 95.4933C131.82 95.4933 130.59 95.2918 129.474 94.8888C128.358 94.4858 127.402 93.9123 126.607 93.1683C125.811 92.4243 125.196 91.5356 124.762 90.5023C124.328 89.469 124.111 88.3116 124.111 87.0303C124.111 85.7076 124.318 84.5141 124.731 83.4498C125.145 82.3855 125.734 81.4813 126.498 80.7373C127.263 79.9933 128.188 79.4198 129.273 79.0168C130.358 78.6138 131.582 78.4123 132.946 78.4123C134.29 78.4123 135.499 78.6138 136.573 79.0168C137.648 79.4198 138.557 80.0036 139.301 80.7683C140.045 81.533 140.614 82.4681 141.006 83.5738C141.399 84.6795 141.595 85.9246 141.595 87.3093L141.595 87.8983L129.784 87.8983Z"/>
<path d="M144.788 79.0013L150.399 79.0013L150.399 80.9543C151.929 79.487 153.644 78.7533 155.545 78.7533C157.901 78.7533 159.699 79.7453 160.939 81.7293C162.2 79.7246 163.998 78.7223 166.333 78.7223C167.077 78.7223 167.78 78.8308 168.441 79.0478C169.103 79.2648 169.671 79.6058 170.146 80.0708C170.622 80.5358 170.999 81.1403 171.278 81.8843C171.557 82.6283 171.696 83.5273 171.696 84.5813L171.696 94.9043L166.085 94.9043L166.085 87.0613C166.085 86.2553 166.028 85.594 165.915 85.0773C165.801 84.5606 165.636 84.1576 165.419 83.8683C165.202 83.579 164.949 83.3826 164.659 83.2793C164.37 83.176 164.06 83.1243 163.729 83.1243C161.931 83.1243 161.032 84.4366 161.032 87.0613L161.032 94.9043L155.421 94.9043L155.421 87.0613C155.421 86.2553 155.37 85.5888 155.266 85.0618C155.163 84.5348 155.013 84.1163 154.817 83.8063C154.62 83.4963 154.367 83.2845 154.057 83.1708C153.747 83.0571 153.386 83.0003 152.972 83.0003C152.621 83.0003 152.29 83.052 151.98 83.1553C151.67 83.2586 151.396 83.4601 151.159 83.7598C150.921 84.0595 150.735 84.4728 150.601 84.9998C150.466 85.5268 150.399 86.214 150.399 87.0613L150.399 94.9043L144.788 94.9043L144.788 79.0013Z"/>
<path d="M187.165 84.6433C186.979 83.858 186.597 83.2276 186.018 82.7523C185.44 82.277 184.737 82.0393 183.91 82.0393C183.042 82.0393 182.334 82.2666 181.787 82.7213C181.239 83.176 180.893 83.8166 180.748 84.6433L187.165 84.6433ZM180.593 87.8983C180.593 90.3163 181.73 91.5253 184.003 91.5253C185.223 91.5253 186.142 91.0293 186.762 90.0373L192.187 90.0373C191.092 93.6746 188.354 95.4933 183.972 95.4933C182.629 95.4933 181.399 95.2918 180.283 94.8888C179.167 94.4858 178.211 93.9123 177.416 93.1683C176.62 92.4243 176.005 91.5356 175.571 90.5023C175.137 89.469 174.92 88.3116 174.92 87.0303C174.92 85.7076 175.127 84.5141 175.54 83.4498C175.954 82.3855 176.543 81.4813 177.307 80.7373C178.072 79.9933 178.997 79.4198 180.082 79.0168C181.167 78.6138 182.391 78.4123 183.755 78.4123C185.099 78.4123 186.308 78.6138 187.382 79.0168C188.457 79.4198 189.366 80.0036 190.11 80.7683C190.854 81.533 191.423 82.4681 191.815 83.5738C192.208 84.6795 192.404 85.9246 192.404 87.3093L192.404 87.8983L180.593 87.8983Z"/>
<path d="M195.597 79.0013L201.208 79.0013L201.208 81.0163C201.973 80.0863 202.748 79.4611 203.533 79.1408C204.319 78.8205 205.238 78.6603 206.292 78.6603C207.408 78.6603 208.364 78.8411 209.16 79.2028C209.955 79.5645 210.632 80.076 211.19 80.7373C211.645 81.2746 211.955 81.874 212.12 82.5353C212.286 83.1966 212.368 83.951 212.368 84.7983L212.368 94.9043L206.757 94.9043L206.757 86.8753C206.757 86.09 206.7 85.4545 206.587 84.9688C206.473 84.4831 206.272 84.0956 205.982 83.8063C205.734 83.5583 205.455 83.3826 205.145 83.2793C204.835 83.176 204.505 83.1243 204.153 83.1243C203.203 83.1243 202.474 83.4085 201.968 83.9768C201.461 84.5451 201.208 85.3563 201.208 86.4103L201.208 94.9043L195.597 94.9043L195.597 79.0013Z"/>
<path d="M222.443 83.6823L222.443 94.9043L216.832 94.9043L216.832 83.6823L214.972 83.6823L214.972 79.0013L216.832 79.0013L216.832 74.2273L222.443 74.2273L222.443 79.0013L225.636 79.0013L225.636 83.6823L222.443 83.6823Z"/>
<path d="M238.439 83.0933C237.406 82.556 236.393 82.2873 235.401 82.2873C234.885 82.2873 234.466 82.3906 234.146 82.5973C233.825 82.804 233.665 83.083 233.665 83.4343C233.665 83.6203 233.691 83.7701 233.743 83.8838C233.794 83.9975 233.908 84.106 234.084 84.2093C234.259 84.3126 234.518 84.4056 234.859 84.4883C235.2 84.571 235.649 84.6743 236.207 84.7983C237.757 85.1083 238.915 85.6611 239.679 86.4568C240.444 87.2525 240.826 88.2703 240.826 89.5103C240.826 90.4403 240.64 91.2773 240.268 92.0213C239.896 92.7653 239.38 93.3905 238.718 93.8968C238.057 94.4031 237.261 94.7958 236.331 95.0748C235.401 95.3538 234.378 95.4933 233.262 95.4933C231.113 95.4933 228.995 94.8836 226.907 93.6643L228.953 89.6963C230.524 90.771 232.012 91.3083 233.417 91.3083C233.934 91.3083 234.358 91.1946 234.688 90.9673C235.019 90.74 235.184 90.4506 235.184 90.0993C235.184 89.8926 235.158 89.7221 235.107 89.5878C235.055 89.4535 234.947 89.3295 234.781 89.2158C234.616 89.1021 234.373 88.9988 234.053 88.9058C233.732 88.8128 233.314 88.7146 232.797 88.6113C231.061 88.26 229.847 87.7381 229.155 87.0458C228.462 86.3535 228.116 85.3976 228.116 84.1783C228.116 83.2896 228.282 82.4888 228.612 81.7758C228.943 81.0628 229.418 80.4583 230.038 79.9623C230.658 79.4663 231.407 79.084 232.286 78.8153C233.164 78.5466 234.141 78.4123 235.215 78.4123C236.972 78.4123 238.677 78.7533 240.33 79.4353L238.439 83.0933Z"/>
</g>
</g>
<g opacity="1">
<path d="M41.2996 35.8861C24.3772 52.8086 22.0711 80.3465 47.0368 88.6684C47.0368 82.3769 41.1913 59.6289 43.3787 51.4782" fill="#ffffff" fill-rule="nonzero" opacity="1" stroke="#4789e1" stroke-linecap="round" stroke-linejoin="round" stroke-opacity="0.00285823" stroke-width="1"/>
<path d="M43.2598 51.3479C42.7406 61.2803 46.5685 71.5014 49.1807 80.9571C51.5259 73.2996 61.1778 69.9743 63.1968 65.6036C67.5685 56.1394 47.6502 39.3846 41.2036 35.7288" fill="#ffffff" fill-rule="nonzero" opacity="1" stroke="#4789e1" stroke-linecap="round" stroke-linejoin="round" stroke-opacity="0.00285823" stroke-width="1"/>
<path d="M84.8762 65.6368C84.8762 77.205 81.5954 103.482 62.1277 93.748C64.6262 88.751 68.7987 84.157 72.4547 79.9787" fill="#ffffff" fill-rule="nonzero" opacity="1" stroke="#4381d5" stroke-linecap="round" stroke-linejoin="round" stroke-opacity="0.0472388" stroke-width="1"/>
<path d="M71.1641 79.4584C70.5904 79.1715 71.7068 79.7757 71.1331 79.4889C67.9035 82.7184 60.9561 89.8158 56.7901 89.8158C56.7901 69.4937 64.8387 67.0572 84.9023 65.7196" fill="#ffffff" fill-rule="nonzero" opacity="1" stroke="#4381d5" stroke-linecap="round" stroke-linejoin="round" stroke-opacity="0.0472388" stroke-width="1"/>
</g>
</g>
</g>
</svg>
